<?xml version="1.0" encoding="UTF-8" standalone="no"?>
<!-- Created with Inkscape (http://www.inkscape.org/) -->

<svg
   version="1.1"
   id="svg488463"
   width="800"
   height="800"
   viewBox="0 0 800 800"
   sodipodi:docname="house-with-fence-publicdomainvectors.org.svg"
   inkscape:version="1.2 (dc2aedaf03, 2022-05-15)"
   xmlns:inkscape="http://www.inkscape.org/namespaces/inkscape"
   xmlns:sodipodi="http://sodipodi.sourceforge.net/DTD/sodipodi-0.dtd"
   xmlns="http://www.w3.org/2000/svg"
   xmlns:svg="http://www.w3.org/2000/svg">
  <defs
     id="defs488467">
    <clipPath
       clipPathUnits="userSpaceOnUse"
       id="clipPath488671">
      <path
         d="M 0,600 H 600 V 0 H 0 Z"
         id="path488669" />
    </clipPath>
  </defs>
  <sodipodi:namedview
     id="namedview488465"
     pagecolor="#ffffff"
     bordercolor="#000000"
     borderopacity="0.25"
     inkscape:showpageshadow="2"
     inkscape:pageopacity="0.0"
     inkscape:pagecheckerboard="0"
     inkscape:deskcolor="#d1d1d1"
     showgrid="false"
     inkscape:zoom="1.04625"
     inkscape:cx="400"
     inkscape:cy="400.4779"
     inkscape:window-width="1920"
     inkscape:window-height="1017"
     inkscape:window-x="-8"
     inkscape:window-y="-8"
     inkscape:window-maximized="1"
     inkscape:current-layer="g488471">
    <inkscape:page
       x="0"
       y="0"
       id="page488469"
       width="800"
       height="800" />
  </sodipodi:namedview>
  <g
     id="g488471"
     inkscape:groupmode="layer"
     inkscape:label="Page 1"
     transform="matrix(1.3333333,0,0,-1.3333333,0,800)">
    <g
       id="g488473"
       transform="translate(43.7656,345.6396)">
      <path
         d="m 0,0 18.723,-17.208 v -139.889 h -37.45 v 139.889 z"
         style="fill:#110f0d;fill-opacity:1;fill-rule:evenodd;stroke:none"
         id="path488475" />
    </g>
    <g
       id="g488477"
       transform="translate(43.7651,341.936)">
      <path
         d="M 0,0 -15.993,-14.694 V -150.661 H 15.991 V -14.694 Z"
         style="fill:#fbca07;fill-opacity:1;fill-rule:evenodd;stroke:none"
         id="path488479" />
    </g>
    <g
       id="g488481"
       transform="translate(43.7651,341.936)">
      <path
         d="m 0,0 12.144,-16.014 v -134.647 h 3.847 v 135.967 z"
         style="fill:#f2a50f;fill-opacity:1;fill-rule:evenodd;stroke:none"
         id="path488483" />
    </g>
    <g
       id="g488485"
       transform="translate(78.4819,345.6396)">
      <path
         d="m 0,0 18.724,-17.208 v -139.889 h -37.45 v 139.889 z"
         style="fill:#110f0d;fill-opacity:1;fill-rule:evenodd;stroke:none"
         id="path488487" />
    </g>
    <g
       id="g488489"
       transform="translate(78.4814,341.936)">
      <path
         d="M 0,0 -15.993,-14.694 V -150.661 H 15.99 l 10e-4,135.967 z"
         style="fill:#fbca07;fill-opacity:1;fill-rule:evenodd;stroke:none"
         id="path488491" />
    </g>
    <g
       id="g488493"
       transform="translate(78.4814,341.936)">
      <path
         d="m 0,0 12.144,-16.014 v -134.647 h 3.846 l 10e-4,135.967 z"
         style="fill:#f2a50f;fill-opacity:1;fill-rule:evenodd;stroke:none"
         id="path488495" />
    </g>
    <g
       id="g488497"
       transform="translate(113.1982,345.6396)">
      <path
         d="m 0,0 18.724,-17.208 v -139.889 h -37.45 v 139.889 z"
         style="fill:#110f0d;fill-opacity:1;fill-rule:evenodd;stroke:none"
         id="path488499" />
    </g>
    <g
       id="g488501"
       transform="translate(113.1978,341.936)">
      <path
         d="M 0,0 -15.992,-14.694 V -150.661 H 15.99 v 135.967 z"
         style="fill:#fbca07;fill-opacity:1;fill-rule:evenodd;stroke:none"
         id="path488503" />
    </g>
    <g
       id="g488505"
       transform="translate(113.1978,341.936)">
      <path
         d="M 0,0 12.144,-16.014 V -150.661 H 15.99 V -14.694 Z"
         style="fill:#f2a50f;fill-opacity:1;fill-rule:evenodd;stroke:none"
         id="path488507" />
    </g>
    <g
       id="g488509"
       transform="translate(147.9155,345.6396)">
      <path
         d="m 0,0 18.723,-17.208 v -139.889 h -37.45 v 139.889 z"
         style="fill:#110f0d;fill-opacity:1;fill-rule:evenodd;stroke:none"
         id="path488511" />
    </g>
    <g
       id="g488513"
       transform="translate(147.9136,341.936)">
      <path
         d="M 0,0 -15.991,-14.694 V -150.661 H 15.991 V -14.694 Z"
         style="fill:#fbca07;fill-opacity:1;fill-rule:evenodd;stroke:none"
         id="path488515" />
    </g>
    <g
       id="g488517"
       transform="translate(147.9136,341.936)">
      <path
         d="m 0,0 12.145,-16.014 v -134.647 h 3.846 v 135.967 z"
         style="fill:#f2a50f;fill-opacity:1;fill-rule:evenodd;stroke:none"
         id="path488519" />
    </g>
    <g
       id="g488521"
       transform="translate(182.6318,345.6396)">
      <path
         d="m 0,0 18.723,-17.208 v -139.889 h -37.45 v 139.889 z"
         style="fill:#110f0d;fill-opacity:1;fill-rule:evenodd;stroke:none"
         id="path488523" />
    </g>
    <g
       id="g488525"
       transform="translate(182.6309,341.936)">
      <path
         d="M 0,0 -15.992,-14.694 V -150.661 H 15.991 V -14.694 Z"
         style="fill:#fbca07;fill-opacity:1;fill-rule:evenodd;stroke:none"
         id="path488527" />
    </g>
    <g
       id="g488529"
       transform="translate(182.6309,341.936)">
      <path
         d="m 0,0 12.144,-16.014 v -134.647 h 3.847 v 135.967 z"
         style="fill:#f2a50f;fill-opacity:1;fill-rule:evenodd;stroke:none"
         id="path488531" />
    </g>
    <g
       id="g488533"
       transform="translate(217.3472,345.6396)">
      <path
         d="m 0,0 18.724,-17.208 v -139.889 h -37.45 v 139.889 z"
         style="fill:#110f0d;fill-opacity:1;fill-rule:evenodd;stroke:none"
         id="path488535" />
    </g>
    <g
       id="g488537"
       transform="translate(217.3472,341.936)">
      <path
         d="M 0,0 -15.992,-14.694 V -150.661 H 15.991 V -14.694 Z"
         style="fill:#fbca07;fill-opacity:1;fill-rule:evenodd;stroke:none"
         id="path488539" />
    </g>
    <g
       id="g488541"
       transform="translate(217.3472,341.936)">
      <path
         d="m 0,0 12.144,-16.014 v -134.647 h 3.847 v 135.967 z"
         style="fill:#f2a50f;fill-opacity:1;fill-rule:evenodd;stroke:none"
         id="path488543" />
    </g>
    <g
       id="g488545"
       transform="translate(252.0649,345.6396)">
      <path
         d="M 0,0 18.724,-17.208 V -157.097 H -18.727 V -17.208 Z"
         style="fill:#110f0d;fill-opacity:1;fill-rule:evenodd;stroke:none"
         id="path488547" />
    </g>
    <g
       id="g488549"
       transform="translate(252.0635,341.936)">
      <path
         d="m 0,0 -15.992,-14.694 -10e-4,-135.967 h 31.984 v 135.967 z"
         style="fill:#fbca07;fill-opacity:1;fill-rule:evenodd;stroke:none"
         id="path488551" />
    </g>
    <g
       id="g488553"
       transform="translate(252.0635,341.936)">
      <path
         d="m 0,0 12.144,-16.014 v -134.647 h 3.847 v 135.967 z"
         style="fill:#f2a50f;fill-opacity:1;fill-rule:evenodd;stroke:none"
         id="path488555" />
    </g>
    <g
       id="g488557"
       transform="translate(286.7813,345.6396)">
      <path
         d="M 0,0 18.724,-17.208 V -157.097 H -18.727 V -17.208 Z"
         style="fill:#110f0d;fill-opacity:1;fill-rule:evenodd;stroke:none"
         id="path488559" />
    </g>
    <g
       id="g488561"
       transform="translate(286.7798,341.936)">
      <path
         d="M 0,0 -15.991,-14.694 V -150.661 H 15.991 V -14.694 Z"
         style="fill:#fbca07;fill-opacity:1;fill-rule:evenodd;stroke:none"
         id="path488563" />
    </g>
    <g
       id="g488565"
       transform="translate(286.7798,341.936)">
      <path
         d="m 0,0 12.144,-16.014 v -134.647 h 3.847 v 135.967 z"
         style="fill:#f2a50f;fill-opacity:1;fill-rule:evenodd;stroke:none"
         id="path488567" />
    </g>
    <g
       id="g488569"
       transform="translate(321.498,345.6396)">
      <path
         d="M 0,0 18.724,-17.208 V -157.097 H -18.728 V -17.208 Z"
         style="fill:#110f0d;fill-opacity:1;fill-rule:evenodd;stroke:none"
         id="path488571" />
    </g>
    <g
       id="g488573"
       transform="translate(321.4961,341.936)">
      <path
         d="M 0,0 -15.991,-14.694 V -150.661 H 15.99 v 135.967 z"
         style="fill:#fbca07;fill-opacity:1;fill-rule:evenodd;stroke:none"
         id="path488575" />
    </g>
    <g
       id="g488577"
       transform="translate(321.4961,341.936)">
      <path
         d="M 0,0 12.145,-16.014 12.143,-150.661 H 15.99 V -14.694 Z"
         style="fill:#f2a50f;fill-opacity:1;fill-rule:evenodd;stroke:none"
         id="path488579" />
    </g>
    <g
       id="g488581"
       transform="translate(356.2139,345.6396)">
      <path
         d="M 0,0 18.724,-17.208 V -157.097 H -18.728 V -17.208 Z"
         style="fill:#110f0d;fill-opacity:1;fill-rule:evenodd;stroke:none"
         id="path488583" />
    </g>
    <g
       id="g488585"
       transform="translate(356.2119,341.936)">
      <path
         d="M 0,0 -15.99,-14.694 V -150.661 H 15.991 V -14.694 Z"
         style="fill:#fbca07;fill-opacity:1;fill-rule:evenodd;stroke:none"
         id="path488587" />
    </g>
    <g
       id="g488589"
       transform="translate(356.2119,341.936)">
      <path
         d="m 0,0 12.147,-16.014 v -134.647 h 3.844 v 135.967 z"
         style="fill:#f2a50f;fill-opacity:1;fill-rule:evenodd;stroke:none"
         id="path488591" />
    </g>
    <g
       id="g488593"
       transform="translate(390.9297,345.6396)">
      <path
         d="M 0,0 18.725,-17.208 V -157.097 H -18.727 V -17.208 Z"
         style="fill:#110f0d;fill-opacity:1;fill-rule:evenodd;stroke:none"
         id="path488595" />
    </g>
    <g
       id="g488597"
       transform="translate(390.9287,341.936)">
      <path
         d="M 0,0 -15.991,-14.694 V -150.661 H 15.992 V -14.694 Z"
         style="fill:#fbca07;fill-opacity:1;fill-rule:evenodd;stroke:none"
         id="path488599" />
    </g>
    <g
       id="g488601"
       transform="translate(390.9287,341.936)">
      <path
         d="m 0,0 12.146,-16.014 v -134.647 h 3.846 v 135.967 z"
         style="fill:#f2a50f;fill-opacity:1;fill-rule:evenodd;stroke:none"
         id="path488603" />
    </g>
    <g
       id="g488605"
       transform="translate(425.6484,345.6396)">
      <path
         d="M 0,0 18.722,-17.208 V -157.097 H -18.727 V -17.208 Z"
         style="fill:#110f0d;fill-opacity:1;fill-rule:evenodd;stroke:none"
         id="path488607" />
    </g>
    <g
       id="g488609"
       transform="translate(425.6465,341.936)">
      <path
         d="M 0,0 -15.992,-14.694 V -150.661 H 15.99 v 135.967 z"
         style="fill:#fbca07;fill-opacity:1;fill-rule:evenodd;stroke:none"
         id="path488611" />
    </g>
    <g
       id="g488613"
       transform="translate(425.6465,341.936)">
      <path
         d="M 0,0 12.145,-16.014 V -150.661 H 15.99 V -14.694 Z"
         style="fill:#f2a50f;fill-opacity:1;fill-rule:evenodd;stroke:none"
         id="path488615" />
    </g>
    <g
       id="g488617"
       transform="translate(460.3643,345.6396)">
      <path
         d="M 0,0 18.723,-17.208 V -157.097 H -18.728 V -17.208 Z"
         style="fill:#110f0d;fill-opacity:1;fill-rule:evenodd;stroke:none"
         id="path488619" />
    </g>
    <g
       id="g488621"
       transform="translate(460.3623,341.936)">
      <path
         d="M 0,0 -15.992,-14.694 V -150.661 H 15.991 V -14.694 Z"
         style="fill:#fbca07;fill-opacity:1;fill-rule:evenodd;stroke:none"
         id="path488623" />
    </g>
    <g
       id="g488625"
       transform="translate(460.3623,341.936)">
      <path
         d="m 0,0 12.145,-16.014 v -134.647 h 3.846 v 135.967 z"
         style="fill:#f2a50f;fill-opacity:1;fill-rule:evenodd;stroke:none"
         id="path488627" />
    </g>
    <g
       id="g488629"
       transform="translate(495.0801,345.6396)">
      <path
         d="M 0,0 18.722,-17.208 V -157.097 H -18.727 V -17.208 Z"
         style="fill:#110f0d;fill-opacity:1;fill-rule:evenodd;stroke:none"
         id="path488631" />
    </g>
    <g
       id="g488633"
       transform="translate(495.0801,341.936)">
      <path
         d="M 0,0 -15.993,-14.694 V -150.661 H 15.99 v 135.967 z"
         style="fill:#fbca07;fill-opacity:1;fill-rule:evenodd;stroke:none"
         id="path488635" />
    </g>
    <g
       id="g488637"
       transform="translate(495.0801,341.936)">
      <path
         d="M 0,0 12.143,-16.014 V -150.661 H 15.99 V -14.694 Z"
         style="fill:#f2a50f;fill-opacity:1;fill-rule:evenodd;stroke:none"
         id="path488639" />
    </g>
    <g
       id="g488641"
       transform="translate(529.7959,345.6396)">
      <path
         d="M 0,0 18.723,-17.208 V -157.097 H -18.726 V -17.208 Z"
         style="fill:#110f0d;fill-opacity:1;fill-rule:evenodd;stroke:none"
         id="path488643" />
    </g>
    <g
       id="g488645"
       transform="translate(529.7959,341.936)">
      <path
         d="M 0,0 -15.994,-14.694 V -150.661 H 15.991 V -14.694 Z"
         style="fill:#fbca07;fill-opacity:1;fill-rule:evenodd;stroke:none"
         id="path488647" />
    </g>
    <g
       id="g488649"
       transform="translate(529.7959,341.936)">
      <path
         d="m 0,0 12.143,-16.014 v -134.647 h 3.848 v 135.967 z"
         style="fill:#f2a50f;fill-opacity:1;fill-rule:evenodd;stroke:none"
         id="path488651" />
    </g>
    <g
       id="g488653"
       transform="translate(564.5127,345.6396)">
      <path
         d="M 0,0 18.722,-17.208 V -157.097 H -18.726 V -17.208 Z"
         style="fill:#110f0d;fill-opacity:1;fill-rule:evenodd;stroke:none"
         id="path488655" />
    </g>
    <g
       id="g488657"
       transform="translate(564.5127,341.936)">
      <path
         d="M 0,0 -15.994,-14.694 V -150.661 H 15.99 v 135.967 z"
         style="fill:#fbca07;fill-opacity:1;fill-rule:evenodd;stroke:none"
         id="path488659" />
    </g>
    <g
       id="g488661"
       transform="translate(564.5127,341.936)">
      <path
         d="M 0,0 12.143,-16.014 12.142,-150.661 H 15.99 V -14.694 Z"
         style="fill:#f2a50f;fill-opacity:1;fill-rule:evenodd;stroke:none"
         id="path488663" />
    </g>
    <g
       id="g488665">
      <g
         id="g488667"
         clip-path="url(#clipPath488671)">
        <g
           id="g488673"
           transform="translate(503.9521,267.582)">
          <path
             d="m 0,0 c 1.319,0.236 2.675,0.422 4.058,0.555 1.688,0.163 3.37,0.25 5.038,0.25 14.256,0 27.169,-5.783 36.511,-15.125 9.344,-9.344 15.126,-22.254 15.126,-36.511 0,-14.257 -5.782,-27.17 -15.126,-36.513 -9.342,-9.342 -22.255,-15.123 -36.511,-15.123 h -61.479 c -10.058,0 -19.172,4.08 -25.766,10.675 -6.599,6.602 -10.681,15.714 -10.681,25.772 0,5.205 1.095,10.159 3.063,14.642 1.918,4.358 4.664,8.271 8.033,11.536 -0.965,2.407 -1.725,4.925 -2.253,7.526 -0.58,2.85 -0.886,5.795 -0.886,8.789 0,12.112 4.91,23.079 12.848,31.014 7.933,7.936 18.899,12.847 31.012,12.847 7.802,0 15.138,-2.044 21.491,-5.623 C -9.222,11.162 -3.881,6.092 0,0"
             style="fill:#110f0d;fill-opacity:1;fill-rule:evenodd;stroke:none"
             id="path488675" />
        </g>
        <g
           id="g488677"
           transform="translate(508.2656,265.4258)">
          <path
             d="m 0,0 c -1.575,-0.153 -3.15,-0.388 -4.715,-0.695 l -0.931,-0.183 -0.495,0.817 c -3.669,6.042 -8.855,11.07 -15.03,14.549 -5.953,3.354 -12.832,5.268 -20.155,5.268 -11.358,0 -21.641,-4.607 -29.081,-12.047 -7.442,-7.438 -12.046,-17.724 -12.046,-29.08 0,-2.835 0.284,-5.596 0.822,-8.244 0.555,-2.733 1.388,-5.37 2.458,-7.883 l 0.379,-0.888 -0.71,-0.65 c -3.42,-3.141 -6.187,-6.979 -8.077,-11.279 -1.819,-4.144 -2.829,-8.727 -2.829,-13.548 0,-9.312 3.775,-17.742 9.873,-23.843 6.099,-6.097 14.53,-9.87 23.841,-9.87 H 4.782 c 13.505,0 25.731,5.474 34.58,14.322 8.846,8.848 14.323,21.075 14.323,34.579 0,13.503 -5.477,25.731 -14.323,34.578 C 30.513,-5.247 18.287,0.226 4.782,0.226 3.137,0.226 1.542,0.147 0,0"
             style="fill:#87b027;fill-opacity:1;fill-rule:evenodd;stroke:none"
             id="path488679" />
        </g>
        <g
           id="g488681"
           transform="translate(418.4688,195.1338)">
          <path
             d="m 0,0 c 1.298,-6.734 4.6,-12.754 9.26,-17.414 6.099,-6.097 14.53,-9.87 23.84,-9.87 h 61.479 c 13.505,0 25.73,5.474 34.58,14.322 6.294,6.294 10.88,14.3 13.006,23.257 -6.038,-13.114 -18.991,-24.153 -32.486,-24.153 H 20.355 C 12.147,-13.858 3.575,-7.106 0,0"
             style="fill:#769a2a;fill-opacity:1;fill-rule:evenodd;stroke:none"
             id="path488683" />
        </g>
        <g
           id="g488685"
           transform="translate(129.2881,267.582)">
          <path
             d="m 0,0 c 1.321,0.236 2.676,0.422 4.058,0.555 1.689,0.163 3.372,0.25 5.04,0.25 14.256,0 27.168,-5.783 36.511,-15.125 9.342,-9.343 15.124,-22.254 15.124,-36.511 0,-14.257 -5.782,-27.17 -15.124,-36.513 -9.343,-9.341 -22.255,-15.123 -36.511,-15.123 h -61.48 c -10.058,0 -19.171,4.08 -25.766,10.675 -6.599,6.602 -10.681,15.714 -10.681,25.772 0,5.205 1.095,10.159 3.065,14.642 1.916,4.358 4.66,8.272 8.032,11.536 -0.966,2.407 -1.726,4.925 -2.254,7.526 -0.58,2.85 -0.887,5.795 -0.887,8.789 0,12.112 4.912,23.079 12.849,31.014 7.933,7.936 18.9,12.847 31.011,12.847 7.803,0 15.139,-2.044 21.49,-5.622 C -9.219,11.162 -3.879,6.092 0,0"
             style="fill:#110f0d;fill-opacity:1;fill-rule:evenodd;stroke:none"
             id="path488687" />
        </g>
        <g
           id="g488689"
           transform="translate(133.603,265.4258)">
          <path
             d="m 0,0 c -1.574,-0.153 -3.149,-0.388 -4.716,-0.695 l -0.929,-0.183 -0.496,0.817 c -3.667,6.042 -8.856,11.07 -15.03,14.549 -5.952,3.354 -12.832,5.268 -20.157,5.268 -11.356,0 -21.64,-4.607 -29.079,-12.047 -7.441,-7.438 -12.046,-17.724 -12.046,-29.08 0,-2.835 0.284,-5.596 0.822,-8.244 0.555,-2.733 1.387,-5.37 2.458,-7.883 l 0.379,-0.887 -0.71,-0.651 c -3.419,-3.141 -6.188,-6.979 -8.076,-11.279 -1.819,-4.144 -2.83,-8.727 -2.83,-13.548 0,-9.312 3.774,-17.742 9.872,-23.843 6.1,-6.097 14.531,-9.87 23.841,-9.87 h 61.48 c 13.503,0 25.731,5.474 34.578,14.322 8.847,8.848 14.323,21.075 14.323,34.579 0,13.503 -5.476,25.731 -14.323,34.578 C 30.514,-5.247 18.286,0.226 4.783,0.226 3.139,0.226 1.54,0.147 0,0"
             style="fill:#87b027;fill-opacity:1;fill-rule:evenodd;stroke:none"
             id="path488691" />
        </g>
        <g
           id="g488693"
           transform="translate(43.8057,195.1338)">
          <path
             d="m 0,0 c 1.298,-6.734 4.601,-12.754 9.259,-17.414 6.1,-6.097 14.531,-9.87 23.842,-9.87 H 94.58 c 13.503,0 25.732,5.474 34.578,14.322 6.295,6.294 10.882,14.3 13.006,23.257 -6.037,-13.114 -18.99,-24.153 -32.483,-24.153 H 20.355 C 12.146,-13.858 3.576,-7.106 0,0"
             style="fill:#769a2a;fill-opacity:1;fill-rule:evenodd;stroke:none"
             id="path488695" />
        </g>
        <g
           id="g488697"
           transform="translate(119.3237,202.584)">
          <path
             d="M 0,0 H 370.995 V -54.088 H -1.367 l 0,54.088 z"
             style="fill:#110f0d;fill-opacity:1;fill-rule:evenodd;stroke:none"
             id="path488699" />
        </g>
        <g
           id="g488701"
           transform="translate(487.584,199.8506)">
          <path
             d="M 0,0 H -366.893 V -48.619 L 0,-48.62 Z"
             style="fill:#945d29;fill-opacity:1;fill-rule:evenodd;stroke:none"
             id="path488703" />
        </g>
        <g
           id="g488705"
           transform="translate(483.6289,199.8506)">
          <path
             d="M 0,0 H -360.351 V 215.742 H 1.368 L 1.368,0 Z"
             style="fill:#110f0d;fill-opacity:1;fill-rule:evenodd;stroke:none"
             id="path488707" />
        </g>
        <path
           d="M 126.012,202.584 H 482.263 V 412.857 H 126.012 Z"
           style="fill:#c0e365;fill-opacity:1;fill-rule:evenodd;stroke:none"
           id="path488709" />
        <path
           d="m 120.69,195.069 h 366.894 v 4.781 H 120.69 Z"
           style="fill:#c48f54;fill-opacity:1;fill-rule:evenodd;stroke:none"
           id="path488711" />
        <g
           id="g488713"
           transform="translate(499.8223,412.8574)">
          <path
             d="m 0,0 h -393.466 l 36.658,82.471 H -34.56 C -22.372,54.969 -10.134,27.485 2.097,0 Z"
             style="fill:#110f0d;fill-opacity:1;fill-rule:evenodd;stroke:none"
             id="path488715" />
        </g>
        <g
           id="g488717"
           transform="translate(110.5474,415.5923)">
          <path
             d="M 0,0 H 387.181 L 352.954,77.002 H 34.227 Z"
             style="fill:#ac1c22;fill-opacity:1;fill-rule:evenodd;stroke:none"
             id="path488719" />
        </g>
        <path
           d="m 126.011,400.622 h 356.253 v 12.235 H 126.011 Z"
           style="fill:#a6cd4e;fill-opacity:1;fill-rule:evenodd;stroke:none"
           id="path488721" />
        <g
           id="g488723"
           transform="translate(463.501,492.5947)">
          <path
             d="M 0,0 18.848,-64.307 -352.954,-77.002 H 34.227 Z"
             style="fill:#971a1f;fill-opacity:1;fill-rule:evenodd;stroke:none"
             id="path488725" />
        </g>
        <g
           id="g488727"
           transform="translate(439.3154,148.4961)">
          <path
             d="M 0,0 H -111.818 V 217.911 H 1.366 L 1.366,0 Z"
             style="fill:#110f0d;fill-opacity:1;fill-rule:evenodd;stroke:none"
             id="path488729" />
        </g>
        <path
           d="M 330.23,151.23 H 437.948 V 363.674 H 330.23 Z"
           style="fill:#7e2b1a;fill-opacity:1;fill-rule:evenodd;stroke:none"
           id="path488731" />
        <path
           d="m 330.23,151.23 h 9.652 v 212.444 h -9.652 z"
           style="fill:#582314;fill-opacity:1;fill-rule:evenodd;stroke:none"
           id="path488733" />
        <path
           d="M 330.23,363.674 H 437.948 V 354.02 H 330.23 Z"
           style="fill:#582314;fill-opacity:1;fill-rule:evenodd;stroke:none"
           id="path488735" />
        <g
           id="g488737"
           transform="translate(421.8018,271.1563)">
          <path
             d="m 0,0 c 3.771,0 7.189,-1.53 9.66,-4.003 2.471,-2.471 4.003,-5.889 4.003,-9.66 0,-3.772 -1.532,-7.19 -4.003,-9.66 -2.471,-2.473 -5.889,-4.003 -9.66,-4.003 -3.773,0 -7.191,1.53 -9.662,4.003 -2.471,2.47 -4.003,5.888 -4.003,9.66 0,3.771 1.532,7.189 4.003,9.66 C -7.191,-1.53 -3.773,0 0,0"
             style="fill:#110f0d;fill-opacity:1;fill-rule:evenodd;stroke:none"
             id="path488739" />
        </g>
        <g
           id="g488741"
           transform="translate(429.5293,265.2207)">
          <path
             d="m 0,0 c -1.978,1.976 -4.71,3.202 -7.728,3.202 -3.019,0 -5.752,-1.226 -7.729,-3.202 -1.976,-1.976 -3.2,-4.71 -3.2,-7.728 0,-3.017 1.224,-5.752 3.2,-7.727 1.977,-1.976 4.71,-3.202 7.729,-3.202 3.018,0 5.75,1.226 7.728,3.202 1.976,1.975 3.2,4.71 3.2,7.727 C 3.2,-4.71 1.976,-1.976 0,0"
             style="fill:#f2a50f;fill-opacity:1;fill-rule:evenodd;stroke:none"
             id="path488743" />
        </g>
        <g
           id="g488745"
           transform="translate(425.7646,264.7813)">
          <path
             d="m 0,0 c -1.446,1.443 -3.443,2.339 -5.649,2.339 -2.207,0 -4.204,-0.896 -5.65,-2.339 -1.444,-1.446 -2.34,-3.443 -2.34,-5.649 0,-2.207 0.896,-4.205 2.34,-5.65 1.446,-1.445 3.443,-2.34 5.65,-2.34 2.206,0 4.203,0.895 5.649,2.34 1.443,1.445 2.339,3.443 2.339,5.65 C 2.339,-3.443 1.443,-1.446 0,0"
             style="fill:#fab40a;fill-opacity:1;fill-rule:evenodd;stroke:none"
             id="path488747" />
        </g>
        <g
           id="g488749"
           transform="translate(145.6841,366.4072)">
          <path
             d="M 0,0 H 161.574 V -121.353 H -1.368 L -1.368,0 Z"
             style="fill:#110f0d;fill-opacity:1;fill-rule:evenodd;stroke:none"
             id="path488751" />
        </g>
        <g
           id="g488753"
           transform="translate(423.0791,264.5117)">
          <path
             d="M 0,0 C -1.06,1.06 -2.525,1.715 -4.142,1.715 -5.761,1.715 -7.226,1.06 -8.284,0 c -1.061,-1.06 -1.717,-2.525 -1.717,-4.141 0,-1.618 0.656,-3.084 1.717,-4.143 1.058,-1.059 2.523,-1.715 4.142,-1.715 1.617,0 3.082,0.656 4.142,1.715 1.059,1.059 1.715,2.525 1.715,4.143 C 1.715,-2.525 1.059,-1.06 0,0"
             style="fill:#fbca07;fill-opacity:1;fill-rule:evenodd;stroke:none"
             id="path488755" />
        </g>
        <path
           d="M 304.525,363.674 H 147.05 V 247.786 h 157.475 z"
           style="fill:#ffffff;fill-opacity:1;fill-rule:evenodd;stroke:none"
           id="path488757" />
        <g
           id="g488759"
           transform="translate(158.8833,353.75)">
          <path
             d="M 0,0 H 135.174 V -96.037 H -1.368 l 0,96.037 z"
             style="fill:#110f0d;fill-opacity:1;fill-rule:evenodd;stroke:none"
             id="path488761" />
        </g>
        <path
           d="M 291.326,351.015 H 160.25 v -90.568 h 131.076 z"
           style="fill:#758ed0;fill-opacity:1;fill-rule:evenodd;stroke:none"
           id="path488763" />
        <g
           id="g488765"
           transform="translate(261.7969,346.3691)">
          <path
             d="m 0,0 h -13.003 l -38.9,-80.289 H -38.9 Z m -40.266,0 h 22.544 l -38.9,-80.289 h -22.544 z"
             style="fill:#a4b8e4;fill-opacity:1;fill-rule:evenodd;stroke:none"
             id="path488767" />
        </g>
      </g>
    </g>
  </g>
</svg>
